<?xml version="1.0" encoding="UTF-8"?>
<svg width="512" height="512" viewBox="0 0 512 512" fill="none" xmlns="http://www.w3.org/2000/svg">
    <!-- Background Circle -->
    <circle cx="256" cy="256" r="256" fill="black"/>
    
    <!-- WiFi Icon -->
    <path d="M256 352c-17.673 0-32 14.327-32 32s14.327 32 32 32 32-14.327 32-32-14.327-32-32-32zM391.534 266.466C363.125 238.057 311.115 220 256 220s-107.125 18.057-135.534 46.466c-12.496 12.496-12.496 32.758 0 45.254s32.758 12.496 45.254 0C188.057 289.383 220.885 280 256 280s67.943 9.383 90.28 31.72c12.496 12.496 32.758 12.496 45.254 0s12.496-32.758 0-45.254z" fill="black">
    <path d="M437.019 220.981C399.057 183.019 330.269 160 256 160s-143.057 23.019-181.019 60.981c-12.496 12.496-12.496 32.758 0 45.254s32.758 12.496 45.254 0C149.943 236.527 200.655 220 256 220s106.057 16.527 135.765 46.235c12.496 12.496 32.758 12.496 45.254 0s12.496-32.758 0-45.254z" fill="black">
    
    <!-- QR Code Corner -->
    <rect x="312" y="312" width="160" height="160" rx="20" fill="black">
    <rect x="342" y="342" width="100" height="100" fill="#4e54c8"/>
    <rect x="362" y="362" width="20" height="20" fill="black">
    <rect x="402" y="362" width="20" height="20" fill="black">
    <rect x="362" y="402" width="20" height="20" fill="black">
    <rect x="402" y="402" width="20" height="20" fill="black">
    
    <!-- Gradient Definition -->
    
</svg>
